<svg xmlns="http://www.w3.org/2000/svg" version="1.1" xmlns:xlink="http://www.w3.org/1999/xlink" xmlns:svgjs="http://svgjs.dev/svgjs" width="300" height="300"><svg xmlns="http://www.w3.org/2000/svg" viewBox="0 0 300 300">
  <!-- Classic Shield Background with Ornate Border -->
  <path d="M150 15
           C 225 15, 280 60, 280 160
           C 280 235, 205 280, 150 280
           C 95 280, 20 235, 20 160
           C 20 60, 75 15, 150 15 Z" fill="#111"></path>
  
  <!-- Decorative Shield Border -->
  <path d="M150 25
           C 220 25, 270 65, 270 160
           C 270 230, 200 270, 150 270
           C 100 270, 30 230, 30 160
           C 30 65, 80 25, 150 25 Z
           M150 35
           C 215 35, 260 72, 260 160
           C 260 222, 195 260, 150 260
           C 105 260, 40 222, 40 160
           C 40 72, 85 35, 150 35 Z" fill="#333"></path>
  
  <!-- Decorative Crest Elements -->
  <path d="M55 160 L55 70 L65 60 L75 70 L75 160 M225 160 L225 70 L235 60 L245 70 L245 160" fill="#222"></path>
  
  <!-- Stylized W with Serifs -->
  <path d="M70 80
           L78 80
           L80 75
           L95 75
           L97 80
           L105 80
           L120 160
           L150 80
           L180 160
           L195 80
           L203 80
           L205 75
           L220 75
           L222 80
           L230 80
           L205 205
           L195 205
           L150 105
           L105 205
           L95 205
           Z" fill="#DDD"></path>
  
  <!-- Stylized S with Classic Curves -->
  <path d="M160 205
           C 160 220, 170 230, 185 230
           C 200 230, 210 220, 210 205
           C 210 190, 200 180, 185 180
           C 170 180, 160 170, 160 155
           C 160 140, 170 130, 185 130
           C 200 130, 210 140, 210 155
           L230 155
           C 230 130, 210 110, 185 110
           C 160 110, 140 130, 140 155
           C 140 180, 160 190, 185 190
           C 200 190, 210 195, 210 205
           C 210 215, 200 220, 185 220
           C 170 220, 160 215, 160 205
           Z" fill="#DDD"></path>
  
  <!-- Decorative Ribbon at Bottom -->
  <path d="M90 225
           C 130 240, 170 240, 210 225
           C 170 250, 130 250, 90 225 Z" fill="#444"></path>
</svg><style>@media (prefers-color-scheme: light) { :root { filter: none; } }
@media (prefers-color-scheme: dark) { :root { filter: none; } }
</style></svg>
